<svg width="83" height="90" viewBox="0 0 83 90" fill="none" xmlns="http://www.w3.org/2000/svg">
<path d="M68.3857 24.8435C69.5735 25.523 70.5599 26.5087 71.2433 27.699C71.9267 28.8893 72.2824 30.2413 72.2739 31.6158V56.9391C72.2739 59.7516 70.7428 62.3452 68.2716 63.7114L44.9426 78.5564C43.786 79.1951 42.4879 79.53 41.1684 79.53C39.849 79.53 38.5509 79.1951 37.3943 78.5564L14.0652 63.7114C12.8561 63.0468 11.8468 62.0676 11.1427 60.8762C10.4387 59.6849 10.0658 58.3251 10.063 56.9391V31.6124C10.063 28.7998 11.5941 26.2098 14.0652 24.8435L37.3943 11.0068C38.5851 10.3464 39.9227 10 41.2825 10C42.6423 10 43.9799 10.3464 45.1707 11.0068L68.4997 24.8435H68.3857Z" fill="#F1F4F9"/>
<path d="M52.0875 40.082C49.84 36.3501 46.7493 33.1952 43.0625 30.8695C41.4011 29.818 39.5073 29.1886 37.5463 29.0362C35.5852 28.8839 33.6167 29.2133 31.8125 29.9957C30.2344 30.739 28.8612 31.8549 27.8115 33.2468C26.7618 34.6387 26.0671 36.2649 25.7875 37.9849C25.6875 38.5965 25.6 39.2332 25.525 39.7325H24.275C23.8467 39.7276 23.4217 39.8075 23.0245 39.9678C22.6274 40.128 22.2661 40.3654 21.9615 40.6661C21.6568 40.9668 21.415 41.3249 21.25 41.7197C21.0849 42.1144 21 42.5379 21 42.9656V53.6387C21 53.9234 21.1133 54.1965 21.3149 54.3978C21.5165 54.5992 21.7899 54.7123 22.075 54.7123H24.2375V54.2254C24.2343 53.0696 24.5097 51.9299 25.0404 50.9028C25.5712 49.8756 26.3416 48.9911 27.2867 48.3239C28.2319 47.6567 29.3239 47.2264 30.4706 47.0695C31.6173 46.9125 32.785 47.0335 33.875 47.4221L32.625 48.6704C31.6268 48.4871 30.5977 48.5732 29.644 48.92C28.6902 49.2667 27.8465 49.8614 27.2 50.6428C26.8666 50.9768 26.5995 51.3707 26.4125 51.8037C26.0279 52.547 25.8144 53.3667 25.7876 54.2029C25.7608 55.0392 25.9214 55.8708 26.2576 56.6371C26.5939 57.4035 27.0973 58.0851 27.7311 58.6323C28.3649 59.1794 29.1131 59.5783 29.921 59.7997C30.7289 60.0211 31.5762 60.0595 32.4009 59.9121C33.2256 59.7647 34.0069 59.4351 34.6877 58.9476C35.3685 58.46 35.9317 57.8267 36.3361 57.094C36.7405 56.3612 36.9758 55.5475 37.025 54.7123H43.875V54.2254C43.8725 53.0711 44.1479 51.933 44.6779 50.9072C45.208 49.8814 45.9772 48.9978 46.9207 48.3309C47.8642 47.664 48.9543 47.2333 50.0993 47.0751C51.2444 46.917 52.4107 47.036 53.5 47.4221L52.25 48.6704C51.2518 48.4871 50.2227 48.5732 49.269 48.92C48.3152 49.2667 47.4715 49.8614 46.825 50.6428C46.4916 50.9768 46.2245 51.3707 46.0375 51.8037C45.6581 52.5469 45.4493 53.3651 45.4261 54.199C45.4029 55.0329 45.5659 55.8614 45.9034 56.6245C46.2409 57.3876 46.7443 58.066 47.3771 58.6105C48.0099 59.1551 48.7562 59.552 49.5618 59.7725C50.3674 59.9931 51.2121 60.0316 52.0345 59.8855C52.8569 59.7393 53.6364 59.4121 54.3163 58.9275C54.9962 58.443 55.5596 57.8132 55.9654 57.0841C56.3712 56.355 56.6094 55.5448 56.6625 54.7123H59.925C60.2101 54.7123 60.4835 54.5992 60.6851 54.3978C60.8867 54.1965 61 53.9234 61 53.6387V51.4167C60.9905 48.806 60.1086 46.2732 58.4941 44.2199C56.8796 42.1666 54.6249 40.7104 52.0875 40.082ZM33.5 39.7325H28.5C28.5 39.2956 28.625 38.8462 28.7 38.3968C28.91 37.0321 29.4642 35.7431 30.3105 34.6512C31.1567 33.5594 32.2672 32.7004 33.5375 32.1552L33.5 39.7325ZM31.45 57.6583C30.8319 57.6583 30.2277 57.4753 29.7138 57.1323C29.1999 56.7894 28.7994 56.302 28.5629 55.7318C28.3264 55.1615 28.2645 54.534 28.385 53.9287C28.5056 53.3233 28.8033 52.7672 29.2403 52.3308C29.6773 51.8943 30.2342 51.5971 30.8403 51.4767C31.4465 51.3563 32.0749 51.4181 32.6459 51.6543C33.2169 51.8905 33.705 52.2905 34.0483 52.8037C34.3917 53.3169 34.575 53.9203 34.575 54.5375C34.575 55.3652 34.2458 56.159 33.6597 56.7442C33.0737 57.3295 32.2788 57.6583 31.45 57.6583ZM42.25 45.9741H38.5V43.4774H42.25V45.9741ZM34.75 39.7325V31.581C37.0987 31.2618 39.4854 31.7694 41.5 33.0166C44.2681 34.7543 46.6504 37.0399 48.5 39.7325H34.75ZM51.075 57.6583C50.4569 57.6583 49.8527 57.4753 49.3388 57.1323C48.8249 56.7894 48.4244 56.302 48.1879 55.7318C47.9514 55.1615 47.8895 54.534 48.01 53.9287C48.1306 53.3233 48.4283 52.7672 48.8653 52.3308C49.3023 51.8943 49.8592 51.5971 50.4653 51.4767C51.0715 51.3563 51.6999 51.4181 52.2709 51.6543C52.8419 51.8905 53.33 52.2905 53.6733 52.8037C54.0167 53.3169 54.2 53.9203 54.2 54.5375C54.2 55.3652 53.8708 56.159 53.2847 56.7442C52.6987 57.3295 51.9038 57.6583 51.075 57.6583Z" fill="black"/>
</svg>
